# xmcd
#
# Track frame offsets:
#	182
#	16025
#	33712
#	46857
#	62170
#	76722
#	92497
#	105532
#	119610
#	133707
#	146315
#	164277
#	181032
#	197705
#	209165
#	226407
#
# Disc length: 3179 seconds
#
# Revision: 1
# Processed by: cddbd v1.4PL0 Copyright (c) Steve Scherf et al.
# Submitted via: audiograbber 1.80
#
DISCID=d10c6910
DTITLE=Various Artist - Country Boogie
DYEAR=1900
DGENRE=
TTITLE0=Tanya Tucker - Down To My Last Teardrop
TTITLE1=Eddy Raven - Joe Knows How To Live
TTITLE2=Tracy Lawrence - Runnin' Behind
TTITLE3=The Desert Rose Band - One Step Forward
TTITLE4=Diamond Rio - Mirror Mirror
TTITLE5=Restless Heart - That Rock Won't Roll
TTITLE6=Oak Ridge Boys - Bobbie Sue
TTITLE7=Steve Wariner - Lynda
TTITLE8=Lorrie Morgan - We Both Walk
TTITLE9=Sawyer Brown - Step That Step
TTITLE10=Michelle Wright - Take It Like a Man
TTITLE11=Carlene Carter - I Fell In Love
TTITLE12=Dan Seals - Bop
TTITLE13=Highway 101 - Cry, Cry, Cry
TTITLE14=Rodney Crowell - Lovin' All Night
TTITLE15=Hank Williams Jr. - Born To Boogie
EXTD=
EXTT0=
EXTT1=
EXTT2=
EXTT3=
EXTT4=
EXTT5=
EXTT6=
EXTT7=
EXTT8=
EXTT9=
EXTT10=
EXTT11=
EXTT12=
EXTT13=
EXTT14=
EXTT15=
PLAYORDER=
